<svg width="233" height="40" viewBox="0 0 233 40" fill="none" xmlns="http://www.w3.org/2000/svg">
<g transform="translate(3.798 35.415) scale(0.020189 -0.020189)" fill="#1F2A2E" fill-opacity="0.7">
<path d="M10 1493H397L793 391L1188 1493H1575L1022 0H563Z" transform="translate(0 0)" />
<path d="M705 891Q586 891 523.5 805.5Q461 720 461 559Q461 398 523.5 312.5Q586 227 705 227Q822 227 884.0 312.5Q946 398 946 559Q946 720 884.0 805.5Q822 891 705 891ZM705 1147Q994 1147 1156.5 991.0Q1319 835 1319 559Q1319 283 1156.5 127.0Q994 -29 705 -29Q415 -29 251.5 127.0Q88 283 88 559Q88 835 251.5 991.0Q415 1147 705 1147Z" transform="translate(1585 0)" />
<path d="M172 1120H530V0H172ZM172 1556H530V1264H172Z" transform="translate(2992 0)" />
<path d="M1077 1085V793Q1004 843 930.5 867.0Q857 891 778 891Q628 891 544.5 803.5Q461 716 461 559Q461 402 544.5 314.5Q628 227 778 227Q862 227 937.5 252.0Q1013 277 1077 326V33Q993 2 906.5 -13.5Q820 -29 733 -29Q430 -29 259.0 126.5Q88 282 88 559Q88 836 259.0 991.5Q430 1147 733 1147Q821 1147 906.5 1131.5Q992 1116 1077 1085Z" transform="translate(3694 0)" />
<path d="M1290 563V461H453Q466 335 544.0 272.0Q622 209 762 209Q875 209 993.5 242.5Q1112 276 1237 344V68Q1110 20 983.0 -4.5Q856 -29 729 -29Q425 -29 256.5 125.5Q88 280 88 559Q88 833 253.5 990.0Q419 1147 709 1147Q973 1147 1131.5 988.0Q1290 829 1290 563ZM922 682Q922 784 862.5 846.5Q803 909 707 909Q603 909 538.0 850.5Q473 792 457 682Z" transform="translate(4908 0)" />
<path d="M909 1556V1321H711Q635 1321 605.0 1293.5Q575 1266 575 1198V1120H881V864H575V0H217V864H39V1120H217V1198Q217 1381 319.0 1468.5Q421 1556 635 1556Z" transform="translate(6297 0)" />
<path d="M172 1556H530V0H172Z" transform="translate(7188 0)" />
<path d="M705 891Q586 891 523.5 805.5Q461 720 461 559Q461 398 523.5 312.5Q586 227 705 227Q822 227 884.0 312.5Q946 398 946 559Q946 720 884.0 805.5Q822 891 705 891ZM705 1147Q994 1147 1156.5 991.0Q1319 835 1319 559Q1319 283 1156.5 127.0Q994 -29 705 -29Q415 -29 251.5 127.0Q88 283 88 559Q88 835 251.5 991.0Q415 1147 705 1147Z" transform="translate(7890 0)" />
<path d="M72 1120H420L608 348L797 1120H1096L1284 356L1473 1120H1821L1526 0H1135L946 770L758 0H367Z" transform="translate(9297 0)" />
</g>
</svg>
