<svg width="123" height="40" viewBox="0 0 123 40" fill="none" xmlns="http://www.w3.org/2000/svg">
<g transform="translate(0.047 35.390) scale(0.021025 -0.021025)" fill="#1F2A2E" fill-opacity="0.7">
<path d="M188 1493H678L1018 694L1360 1493H1849V0H1485V1092L1141 287H897L553 1092V0H188Z" transform="translate(0 0)" />
<path d="M1290 563V461H453Q466 335 544.0 272.0Q622 209 762 209Q875 209 993.5 242.5Q1112 276 1237 344V68Q1110 20 983.0 -4.5Q856 -29 729 -29Q425 -29 256.5 125.5Q88 280 88 559Q88 833 253.5 990.0Q419 1147 709 1147Q973 1147 1131.5 988.0Q1290 829 1290 563ZM922 682Q922 784 862.5 846.5Q803 909 707 909Q603 909 538.0 850.5Q473 792 457 682Z" transform="translate(2038 0)" />
<path d="M563 1438V1120H932V864H563V389Q563 311 594.0 283.5Q625 256 717 256H901V0H594Q382 0 293.5 88.5Q205 177 205 389V864H27V1120H205V1438Z" transform="translate(3427 0)" />
<path d="M674 504Q562 504 505.5 466.0Q449 428 449 354Q449 286 494.5 247.5Q540 209 621 209Q722 209 791.0 281.5Q860 354 860 463V504ZM1221 639V0H860V166Q788 64 698.0 17.5Q608 -29 479 -29Q305 -29 196.5 72.5Q88 174 88 336Q88 533 223.5 625.0Q359 717 649 717H860V745Q860 830 793.0 869.5Q726 909 584 909Q469 909 370.0 886.0Q271 863 186 817V1090Q301 1118 417.0 1132.5Q533 1147 649 1147Q952 1147 1086.5 1027.5Q1221 908 1221 639Z" transform="translate(4406 0)" />
</g>
</svg>
