<?xml version="1.0" encoding="UTF-8" standalone="no"?>
<svg
   width="289.592"
   height="54"
   viewBox="0 0 289.592 54"
   version="1.1"
   id="svg5"
   xmlns="http://www.w3.org/2000/svg"
   xmlns:svg="http://www.w3.org/2000/svg">
  <defs
     id="defs9" />
  <path
     id="word"
     d="" />
  <g
     aria-label="EscalarChat"
     id="wordtext"
     style="font-weight:900;font-size:48px;font-family:'Inter Display';fill:#1f2a2e">
    <path
       d="M 1.5,44 H 26.90625 V 35.75 H 11.25 v -5.53125 h 13.59375 v -7.3125 H 11.25 V 17.75 H 26.390625 V 9.5 H 1.5 Z"
       id="path11" />
    <path
       d="m 52.96875,27.453125 c -0.140625,-5.34375 -4.59375,-8.53125 -11.953125,-8.53125 -7.125,0 -11.578125,2.90625 -11.578125,8.109375 0,3.84375 2.390625,6.46875 7.640625,7.359375 l 4.40625,0.75 c 1.640625,0.28125 2.71875,0.703125 2.71875,1.640625 0,0.9375 -1.125,1.40625 -2.578125,1.40625 -1.875,0 -3.28125,-0.796875 -3.515625,-2.296875 H 28.875 c 0.46875,5.0625 4.875,8.53125 12.65625,8.53125 6.984375,0 12.09375,-3.375 12.09375,-8.71875 0,-4.125 -3.140625,-5.90625 -7.640625,-6.703125 l -5.0625,-0.890625 c -1.78125,-0.328125 -2.25,-0.984375 -2.25,-1.59375 0,-0.890625 1.171875,-1.40625 2.578125,-1.40625 1.640625,0 3.140625,0.890625 3.1875,2.34375 z"
       id="path13" />
    <path
       d="m 67.78125,44.375 c 7.335937,0.02344 11.8125,-4.171875 11.90625,-10.734375 h -8.34375 c -0.421875,2.53125 -1.734375,3.75 -3.46875,3.75 -2.203125,0 -3.46875,-1.921875 -3.46875,-5.765625 0,-3.890625 1.265625,-5.765625 3.46875,-5.765625 1.734375,0 3.046875,1.171875 3.46875,3.65625 H 79.6875 C 79.640625,23.070312 75.046875,18.898437 67.78125,18.875 c -8.0625,0.02344 -12.84375,5.179687 -12.84375,12.75 0,7.617187 4.78125,12.773437 12.84375,12.75 z"
       id="path15" />
    <path
       d="m 89.578125,44.421875 c 3.140625,0 5.859375,-0.9375 7.5,-3.890625 h 0.09375 V 44 H 105.9375 V 27.03125 c 0,-4.59375 -4.5,-8.15625 -11.90625,-8.15625 -7.734375,0 -11.53125,3.914062 -11.859375,8.578125 H 90.75 c 0.1875,-1.546875 1.453125,-2.25 3.140625,-2.25 1.640625,0 2.765625,0.609375 2.765625,1.78125 v 0.09375 c 0,1.359375 -1.640625,1.875 -6,2.15625 -5.34375,0.328125 -9.515625,2.390625 -9.515625,7.921875 0,4.921875 3.46875,7.265625 8.4375,7.265625 z m 3.046875,-5.8125 c -1.59375,0 -2.71875,-0.75 -2.71875,-2.015625 0,-1.265625 1.171875,-2.15625 3.09375,-2.4375 1.734375,-0.234375 2.8125,-0.5625 3.75,-0.890625 v 1.96875 c 0,2.203125 -2.109375,3.375 -4.125,3.375 z"
       id="path17" />
    <path
       d="m 118.26563,9.5 h -9.375 V 44 h 9.375 z"
       id="path19" />
    <path
       d="m 128.90625,44.421875 c 3.14062,0 5.85937,-0.9375 7.5,-3.890625 H 136.5 V 44 h 8.76562 V 27.03125 c 0,-4.59375 -4.5,-8.15625 -11.90625,-8.15625 -7.73437,0 -11.53124,3.914062 -11.85937,8.578125 h 8.57812 c 0.1875,-1.546875 1.45313,-2.25 3.14063,-2.25 1.64062,0 2.76562,0.609375 2.76562,1.78125 v 0.09375 c 0,1.359375 -1.64062,1.875 -6,2.15625 -5.34374,0.328125 -9.51562,2.390625 -9.51562,7.921875 0,4.921875 3.46875,7.265625 8.4375,7.265625 z m 3.04687,-5.8125 c -1.59375,0 -2.71875,-0.75 -2.71875,-2.015625 0,-1.265625 1.17188,-2.15625 3.09375,-2.4375 1.73438,-0.234375 2.8125,-0.5625 3.75,-0.890625 v 1.96875 c 0,2.203125 -2.10937,3.375 -4.125,3.375 z"
       id="path21" />
    <path
       d="M 148.17187,44 H 157.5 V 31.578125 c 0,-2.953125 2.03906,-4.898438 4.78125,-4.875 0.96094,-0.02344 2.53125,0.140625 3.42187,0.46875 v -7.96875 C 165,18.992187 164.17969,18.875 163.35937,18.875 c -2.74218,0 -4.89843,1.617187 -5.85937,5.25 h -0.28125 V 19.25 h -9.04688 z"
       id="path23" />
    <path
       d="m 183.9375,44.5625 c 9.09375,0 15.65625,-5.90625 15.9375,-14.0625 h -9.5625 c -0.375,3.773437 -2.50781,5.859375 -6.04688,5.859375 -4.64062,0 -7.17187,-3.421875 -7.17187,-9.609375 0,-6.234375 2.48437,-9.609375 7.125,-9.609375 3.5625,0 5.71875,2.0625 6.09375,5.859375 h 9.5625 c -0.28125,-8.390625 -6.98438,-14.0625 -15.9375,-14.0625 -9.46875,0 -16.82813,6.28125 -16.78125,17.8125 -0.0469,11.4375 7.3125,17.8125 16.78125,17.8125 z"
       id="path25" />
    <path
       d="m 211.6875,29.421875 c 0.0234,-2.53125 1.5,-4.078125 3.75,-4.078125 2.41406,0 3.75,1.546875 3.70312,4.078125 V 44 h 9.32813 V 27.5 c 0.0234,-5.671875 -3.53906,-9.703125 -9.04688,-9.703125 -3.79687,0 -6.63281,1.945312 -7.82812,5.25 h -0.23438 V 9.5 h -9 V 44 h 9.32813 z"
       id="path27" />
    <path
       d="m 239.0625,44.421875 c 3.14062,0 5.85937,-0.9375 7.5,-3.890625 h 0.0937 V 44 h 8.76562 V 27.03125 c 0,-4.59375 -4.5,-8.15625 -11.90625,-8.15625 -7.73437,0 -11.53125,3.914062 -11.85937,8.578125 h 8.57812 c 0.1875,-1.546875 1.45313,-2.25 3.14063,-2.25 1.64062,0 2.76562,0.609375 2.76562,1.78125 v 0.09375 c 0,1.359375 -1.64062,1.875 -6,2.15625 -5.34375,0.328125 -9.51562,2.390625 -9.51562,7.921875 0,4.921875 3.46875,7.265625 8.4375,7.265625 z m 3.04687,-5.8125 c -1.59375,0 -2.71875,-0.75 -2.71875,-2.015625 0,-1.265625 1.17188,-2.15625 3.09375,-2.4375 1.73438,-0.234375 2.8125,-0.5625 3.75,-0.890625 v 1.96875 c 0,2.203125 -2.10937,3.375 -4.125,3.375 z"
       id="path29" />
    <path
       d="m 269.95312,44 h 4.6875 v -7.125 h -2.10937 C 270.67969,36.875 270,36.195312 270,34.390625 V 26.375 h 4.64062 V 19.25 H 270 v -6.375 h -9.375 v 6.375 h -3.375 v 7.125 h 3.375 v 9.65625 c 0,5.53125 2.85937,7.96875 9.32812,7.96875 z"
       id="path31" />
  </g>
  <rect
     id="dot"
     x="278.641"
     y="37.7144"
     width="6.097"
     height="6.097"
     fill="#1F2A2E" />
</svg>
